<?xml version="1.0" ?><svg viewBox="0 0 64 64" xmlns="http://www.w3.org/2000/svg"><g><path style="fill:white" d="M55.69,29.2a1.5,1.5,0,0,0-1.5,1.5V58.5H5.5V9.81H33.3a1.5,1.5,0,0,0,0-3H4a1.5,1.5,0,0,0-1.5,1.5V60A1.5,1.5,0,0,0,4,61.5H55.69a1.5,1.5,0,0,0,1.5-1.5V30.7A1.5,1.5,0,0,0,55.69,29.2Z"/><path style="fill:limegreen" d="M59.88,3.54a4.51,4.51,0,0,0-6.34.58L26.24,36.87l-8-8.66c-4.09-4.31-10.56,1.49-6.69,6C13.23,36.12,24,47.68,25.35,49.31a1.52,1.52,0,0,0,2.27,0L60.46,9.88A4.51,4.51,0,0,0,59.88,3.54Z"/></g></svg>