<?xml version="1.0" encoding="UTF-8" standalone="no"?>
<!-- Created with Inkscape (http://www.inkscape.org/) -->

<svg
   version="1.1"
   id="svg2"
   width="440"
   height="180"
   viewBox="0 0 440 180"
   sodipodi:docname="hetjetlogo.svg"
   inkscape:version="1.2.2 (732a01da63, 2022-12-09)"
   xmlns:inkscape="http://www.inkscape.org/namespaces/inkscape"
   xmlns:sodipodi="http://sodipodi.sourceforge.net/DTD/sodipodi-0.dtd"
   xmlns="http://www.w3.org/2000/svg"
   xmlns:svg="http://www.w3.org/2000/svg">
   <text x="60" y="40" font-size="24" font-family="Verdana">HATCH END TRIATHLON</text>
   <text x="160" y="70" font-size="18" font-family="Verdana">Sunday 12 May 2024</text>
   <text x="196" y="144" font-size="18" font-family="Verdana">BRITISH TRIATHLON</text>
   <text x="200" y="158" font-size="11" font-family="Verdana">Permitted Event Organiser 2024</text>
 <g transform="translate(50, 50) scale(0.4)">
 <path
     id="circle19"
     style="stroke-width:0.77952"
     d="m 112.62156,125.47924 a 17.052011,17.052011 0 0 0 -17.052021,17.05203 17.052011,17.052011 0 0 0 17.052021,17.05202 17.052011,17.052011 0 0 0 17.05203,-17.05202 17.052011,17.052011 0 0 0 -17.05203,-17.05203 z m -30.198319,21.52818 c -4.202823,0.0491 -8.759199,3.07313 -8.024602,7.71604 1.49746,8.22551 6.955542,15.0838 12.391138,21.17497 7.378162,8.79143 18.428533,13.46116 29.335573,16.12634 9.55849,2.80393 19.65442,3.38155 29.55278,2.91306 -5.07546,-2.284 -11.03136,-1.55094 -16.0086,-4.18181 -11.1526,-5.19862 -22.72069,-11.13314 -30.09885,-21.34955 -4.036365,-5.26255 -5.632112,-11.85091 -9.102538,-17.43772 -1.468616,-2.25359 -3.641372,-4.10779 -6.280829,-4.79689 -0.569439,-0.11839 -1.16367,-0.17147 -1.764072,-0.16444 z m -54.048825,19.86359 c -3.580337,1.43977 -6.715478,4.18989 -7.636871,8.06722 -1.995573,8.18653 1.257077,16.32872 2.740504,24.31335 3.248263,16.70123 8.619769,32.87866 12.165808,49.50973 2.405601,8.21849 4.909653,16.41528 7.35267,24.62597 0.874621,2.55449 1.479938,5.29914 3.176953,7.47244 0.511366,-6.15197 -0.0693,-12.31761 -0.339011,-18.46491 -1.001691,-21.49138 -2.264184,-42.97123 -4.279244,-64.39168 -0.952574,-7.88406 -0.752664,-16.12852 -4.064066,-23.51759 -1.597238,-3.84616 -4.977489,-6.84905 -9.116743,-7.61453 z m 21.74539,1.55701 c -1.472234,-0.0283 -2.947385,0.0537 -4.413227,0.25172 -2.715848,2.28089 -4.711473,5.86362 -4.122934,9.4923 0.868385,3.44391 3.995291,5.53159 6.778179,7.37906 6.337502,3.77755 13.466946,5.8718 20.324388,8.46916 -5.87057,12.10439 -11.712032,24.22838 -17.853875,36.20104 -0.881638,1.65959 -1.267322,3.51565 -1.544832,5.35921 1.279973,-0.50902 2.496222,-1.16032 3.434764,-2.1924 5.90253,-5.75208 11.309425,-11.99386 17.230665,-17.72802 4.269435,-4.5976 9.012094,-9.01011 11.723266,-14.77233 1.80537,-4.12756 3.324479,-8.99455 1.252511,-13.32088 -2.891239,-6.27359 -9.208908,-9.77704 -14.78248,-13.33712 -5.317694,-3.51324 -11.646752,-5.67936 -18.026425,-5.80174 z m 71.833684,30.89257 c -2.18734,0 -4.37247,0.2112 -6.51226,0.64149 -6.04674,1.43977 -11.90948,3.85719 -16.92413,7.57394 -7.930062,5.37947 -13.525063,13.46527 -17.772671,21.91998 -4.160301,9.67071 -5.676601,20.47379 -3.881366,30.88039 1.91762,8.55602 5.843523,17.03759 12.906758,22.5371 5.753642,4.96087 13.229389,7.25523 20.738509,7.25523 4.45651,0 8.92457,-0.80838 13.05291,-2.34872 24.01625,-9.28252 38.33023,-38.19521 30.9474,-62.89355 -1.80225,-6.80286 -5.78253,-12.89732 -10.94374,-17.63057 -5.90408,-5.21108 -13.76632,-7.93529 -21.61141,-7.93529 z M 2.5,199.619 v 4.83548 c 0.1679722,0.0592 0.3311742,0.0782 0.4993808,0.14006 8.3767282,3.63647 14.9504692,11.77113 17.1697632,21.26022 l 0.02436,0.10354 0.02842,0.10352 c 3.265411,11.55639 0.283127,22.97915 -2.821703,30.56779 C 14.551341,262.5182 9.673065,269.98576 2.5,275.50457 v 5.75913 c 8.469668,-5.45112 14.842186,-13.72636 19.173377,-22.72792 4.350504,-10.57107 6.200665,-22.58949 3.049063,-33.74677 C 22.237329,214.16415 14.851342,204.58807 4.7370632,200.25237 4.0114162,199.98267 3.2406888,199.85006 2.5,199.619 Z m 119.45552,4.37872 c 6.87927,0 13.61304,2.45567 18.48114,6.73759 4.74261,4.35829 8.04435,9.66458 9.55116,15.34885 l 0.0183,0.071 0.0203,0.071 c 3.18044,10.64201 1.93539,22.96893 -3.41447,33.81985 -5.33972,10.83378 -14.34563,19.34675 -24.71326,23.36128 -3.59359,1.33766 -7.53218,2.04421 -11.39237,2.04421 -6.82392,0 -13.105227,-2.17375 -17.683354,-6.12046 l -0.08933,-0.0792 -0.09135,-0.0711 c -6.728821,-5.23915 -9.797931,-13.61103 -11.189375,-19.75599 -1.569954,-9.23419 -0.347778,-18.91015 3.534234,-27.99779 4.675565,-9.27163 9.96069,-15.82078 16.154765,-20.02396 l 0.0812,-0.0548 0.0792,-0.0568 c 4.14394,-3.07052 9.23879,-5.34429 15.13975,-6.7599 1.79602,-0.35468 3.64966,-0.5339 5.5135,-0.5339 z" /><path
     id="path2818"
     d="m 154.12555,81.8513 c -2.3498,-0.631433 -9.01471,-3.390875 -14.81088,-6.132097 -18.96891,-8.971103 -20.81449,-8.954951 -37.82786,0.330984 -7.426828,4.053583 -8.102392,4.266299 -14.52633,4.573607 -7.726663,0.369628 -12.047202,-0.807199 -23.274278,-6.33944 -5.017922,-2.47262 -6.625924,-3.643337 -6.625924,-4.82402 0,-2.323045 2.778951,-2.344425 7.294714,-0.05612 9.099055,4.610836 15.586413,6.681566 20.983196,6.697728 4.970956,0.01487 5.811053,-0.273185 16.277772,-5.581444 16.54963,-8.393218 20.51594,-8.293615 40.21576,1.009948 18.6804,8.822121 22.12767,8.838657 39.66148,0.190307 5.59927,-2.761781 12.25576,-5.720521 14.79217,-6.57498 9.23537,-3.111162 16.99752,-1.933856 27.59229,4.185021 8.65731,4.999931 13.75822,7.534975 15.16152,7.534975 2.21217,0 4.07923,1.839732 3.47227,3.421443 -0.45303,1.1806 -1.1778,1.369639 -4.13491,1.078441 -2.60386,-0.25641 -6.25347,-1.872939 -13.32959,-5.904135 -11.57579,-6.594602 -17.01427,-8.278222 -22.87347,-7.081106 -2.211,0.451738 -9.80792,3.595068 -16.88208,6.985163 -16.34594,7.833366 -21.87142,8.983242 -31.16585,6.485709 z m 5.35209,-9.958568 c -4.60714,-1.646411 -7.45011,-4.148321 -9.58735,-8.437173 -5.77781,-11.594563 2.32347,-24.006766 15.66887,-24.006766 4.87557,0 11.1137,3.589131 13.75081,7.911563 4.17996,6.851301 3.4987,13.907773 -1.90911,19.774563 -4.7963,5.203365 -11.6129,7.012873 -17.92322,4.757813 z M 131.28973,61.706646 c -4.95495,-4.036277 -12.8719,-13.103398 -15.79216,-18.08646 -2.84611,-4.856521 -4.4156,-11.623508 -3.48528,-15.027043 0.93615,-3.424815 3.47003,-5.22458 13.29297,-9.441747 12.08998,-5.190454 32.4873,-10.5793653 34.06641,-9.000259 0.77182,0.771827 -3.40549,4.096583 -11.47305,9.131498 -15.14628,9.4527 -21.85078,13.946878 -21.85078,14.647083 0,0.407899 3.83896,4.548283 8.53104,9.200851 8.87346,8.79876 10.17746,10.814982 10.17746,15.736168 0,3.625033 -1.86441,5.50691 -6.00612,6.062429 -2.69748,0.361812 -3.46999,0.02817 -7.46049,-3.22252 z"
     style="fill:#000000;stroke-width:0.77952" /><path
     d="m 239.61449,107.98266 a 16.837658,16.837658 0 0 0 -16.83685,16.83684 16.837658,16.837658 0 0 0 16.83685,16.83886 16.837658,16.837658 0 0 0 16.83887,-16.83886 16.837658,16.837658 0 0 0 -16.83887,-16.83684 z m -36.07316,29.15083 c -5.13988,-0.10606 -10.36523,1.46564 -15.04436,3.43883 -4.11114,1.84245 -8.21797,4.32969 -11.14877,7.78505 -1.33221,1.57061 -2.4227,3.34294 -3.15869,5.34298 -2.25851,6.46525 -0.58187,13.56459 2.12136,19.61591 3.22065,4.87019 7.09542,9.35265 11.59539,13.08946 3.45298,2.93926 7.57768,4.91819 11.16298,7.67747 -3.83104,-3.05353 -5.50512,-7.80665 -8.19107,-11.74966 -2.78157,-4.8526 -5.19348,-10.03918 -6.07579,-15.60666 -0.30095,-3.44295 0.0263,-7.44878 2.93944,-9.77851 3.31018,-2.57122 7.63803,-3.04159 11.67049,-3.51394 4.31123,-0.85159 9.15746,-0.22082 12.90471,-2.93538 1.4822,-1.34762 3.35888,-2.84165 3.41448,-5.02832 -0.29288,-3.1064 -2.29434,-5.99101 -5.29425,-7.03397 -2.24037,-0.86207 -4.5596,-1.255 -6.89592,-1.30326 z m 48.25926,13.14021 c -1.70539,-0.0311 -3.23561,1.16452 -4.44165,2.28172 -2.8305,2.96909 -3.57112,7.43565 -2.9232,11.37615 0.84533,7.23391 4.49634,14.01356 9.78664,18.97036 3.26126,3.12103 8.10923,4.08967 12.46625,3.36575 9.53098,-1.80446 18.16557,-7.68463 23.59472,-15.69193 2.42314,-3.37076 4.73402,-6.9014 6.07782,-10.85848 0.80849,-2.2972 0.60623,-4.78216 1.13883,-7.13749 -0.27166,-0.0531 -0.54011,-0.0893 -0.80996,-0.12383 -0.30944,1.17192 -0.86726,2.25503 -1.5631,3.24192 -3.46601,4.91978 -7.53962,9.57244 -12.76466,12.67534 -4.13678,2.48013 -8.41208,4.99959 -13.15442,6.08798 -3.93917,0.92545 -6.69063,-2.8492 -8.26617,-5.89514 -1.71536,-4.5946 -1.44351,-9.77524 -3.72708,-14.19784 -0.9736,-1.85771 -2.61978,-3.44199 -4.67511,-4.00317 -0.25029,-0.0584 -0.4953,-0.087 -0.73891,-0.0913 z m -49.76552,43.80949 c -3.70273,0.56674 -7.56564,2.58761 -8.91578,6.29504 -2.18501,5.43951 0.29913,11.62327 4.55533,15.30419 -7.4343,10.60847 -14.88887,21.20695 -22.32394,31.81624 -9.21939,13.58865 -17.92328,27.51278 -26.74123,41.36333 18.58455,-16.09167 37.03633,-32.33787 55.17345,-48.92916 4.13691,-4.2554 8.14804,-8.63194 12.09476,-13.0651 4.91253,3.16641 10.33502,5.43164 15.28186,8.53414 1.96905,1.1755 2.34887,3.68829 2.24518,5.78754 -0.39282,8.76883 -3.43484,17.10532 -4.75224,25.73231 -1.48731,7.68995 -2.58773,15.44454 -3.62761,23.207 3.36754,-5.7248 7.52018,-10.98179 10.43015,-16.97083 4.07455,-9.16093 8.26997,-18.26789 12.30792,-27.44361 2.48196,-6.77247 4.69579,-15.15841 0.0568,-21.5302 -5.32802,-6.50977 -12.68589,-10.88024 -18.88309,-16.46941 -0.18473,-1.44213 0.0172,-2.93048 -0.36133,-4.34219 -0.84502,-2.46171 -3.14933,-3.92467 -5.30237,-5.12982 -2.64646,-1.05077 -5.43096,-0.2093 -8.10783,0.1279 -4.21643,-1.86151 -8.50906,-3.71519 -13.13006,-4.28737 z"
     style="fill:#000000;stroke-width:0.626176"
     id="path960" /> 
</g>
  <g transform="translate(200, 50)">
  <defs
     id="defs6">
    <clipPath
       clipPathUnits="userSpaceOnUse"
       id="clipPath18">
      <path
         d="m 1301.7,71.8672 21.25,-6.668 c 0,0 58.75,61.9998 111.42,170.6678 -12,43.664 -41.92,85.332 -41.92,85.332 0,0 -37.42,-145.332 -90.75,-249.3318 z"
         id="path16" />
    </clipPath>
    <linearGradient
       x1="0"
       y1="0"
       x2="1"
       y2="0"
       gradientUnits="userSpaceOnUse"
       gradientTransform="matrix(-136,-189,-189,136,1417.4,273.453)"
       spreadMethod="pad"
       id="linearGradient24">
      <stop
         style="stop-opacity:1;stop-color:#232c3c"
         offset="0"
         id="stop20" />
      <stop
         style="stop-opacity:1;stop-color:#c1c3c8"
         offset="1"
         id="stop22" />
    </linearGradient>
    <clipPath
       clipPathUnits="userSpaceOnUse"
       id="clipPath34">
      <path
         d="m 1392.45,321.199 c 0,0 29.92,-41.668 41.92,-85.332 0,0 53,-14.668 96.66,-39 l 2.67,10.582 c 0,0 -44.25,60.5 -141.25,113.75 z"
         id="path32" />
    </clipPath>
    <linearGradient
       x1="0"
       y1="0"
       x2="1"
       y2="0"
       gradientUnits="userSpaceOnUse"
       gradientTransform="matrix(-139.499,110,110,139.499,1525.48,195.038)"
       spreadMethod="pad"
       id="linearGradient40">
      <stop
         style="stop-opacity:1;stop-color:#232c3c"
         offset="0"
         id="stop36" />
      <stop
         style="stop-opacity:1;stop-color:#c1c3c8"
         offset="1"
         id="stop38" />
    </linearGradient>
    <clipPath
       clipPathUnits="userSpaceOnUse"
       id="clipPath50">
      <path
         d="m 1191.45,466.199 -7.25,-4.25 c 36,-43.25 66.5,-88.25 66.5,-88.25 0,0 52.67,0.059 94,-17.5 -74.04,79.985 -153.25,110 -153.25,110 z"
         id="path48" />
    </clipPath>
    <linearGradient
       x1="0"
       y1="0"
       x2="1"
       y2="0"
       gradientUnits="userSpaceOnUse"
       gradientTransform="matrix(152.5,-113,-113,-152.5,1183.22,454.933)"
       spreadMethod="pad"
       id="linearGradient56">
      <stop
         style="stop-opacity:1;stop-color:#232c3c"
         offset="0"
         id="stop52" />
      <stop
         style="stop-opacity:1;stop-color:#e9e9ea"
         offset="1"
         id="stop54" />
    </linearGradient>
    <clipPath
       clipPathUnits="userSpaceOnUse"
       id="clipPath66">
      <path
         d="m 1250.7,373.699 c -71,-60 -134.33,-158 -134.33,-158 l 14.33,-16.5 c 82,77 214,157 214,157 -41.33,17.559 -94,17.5 -94,17.5 z"
         id="path64" />
    </clipPath>
    <linearGradient
       x1="0"
       y1="0"
       x2="1"
       y2="0"
       gradientUnits="userSpaceOnUse"
       gradientTransform="matrix(-178,-161.333,-161.333,178,1301.63,368.677)"
       spreadMethod="pad"
       id="linearGradient72">
      <stop
         style="stop-opacity:1;stop-color:#232c3c"
         offset="0"
         id="stop68" />
      <stop
         style="stop-opacity:1;stop-color:#e9e9ea"
         offset="1"
         id="stop70" />
    </linearGradient>
    <clipPath
       clipPathUnits="userSpaceOnUse"
       id="clipPath82">
      <path
         d="M 0,0 H 1534 V 487 H 0 Z"
         id="path80" />
    </clipPath>
    <clipPath
       clipPathUnits="userSpaceOnUse"
       id="clipPath88">
      <path
         d="m 1413.41,399.199 c 0,0 -30.96,48.75 -88.04,88 h -10.67 c 0,0 60,-75.773 74.33,-122.219 16.09,19.778 24.38,34.219 24.38,34.219 z"
         id="path86" />
    </clipPath>
    <linearGradient
       x1="0"
       y1="0"
       x2="1"
       y2="0"
       gradientUnits="userSpaceOnUse"
       gradientTransform="matrix(82.0002,-106.333,-106.333,-82.0002,1320.26,487.553)"
       spreadMethod="pad"
       id="linearGradient94">
      <stop
         style="stop-opacity:1;stop-color:#ef323c"
         offset="0"
         id="stop90" />
      <stop
         style="stop-opacity:1;stop-color:#cc2231"
         offset="1"
         id="stop92" />
    </linearGradient>
    <clipPath
       clipPathUnits="userSpaceOnUse"
       id="clipPath104">
      <path
         d="m 1518.7,330.531 c 0,0 -17.25,34.336 -105.29,68.668 0,0 -8.29,-14.441 -24.38,-34.219 0,0 88.67,-7.781 129.67,-34.449 z"
         id="path102" />
    </clipPath>
    <linearGradient
       x1="0"
       y1="0"
       x2="1"
       y2="0"
       gradientUnits="userSpaceOnUse"
       gradientTransform="matrix(114.667,-36.6667,-36.6667,-114.667,1401.73,381.926)"
       spreadMethod="pad"
       id="linearGradient110">
      <stop
         style="stop-opacity:1;stop-color:#ef323c"
         offset="0"
         id="stop106" />
      <stop
         style="stop-opacity:1;stop-color:#cc2231"
         offset="1"
         id="stop108" />
    </linearGradient>
  </defs>
  <sodipodi:namedview
     id="namedview4"
     pagecolor="#ffffff"
     bordercolor="#000000"
     borderopacity="0.25"
     inkscape:showpageshadow="2"
     inkscape:pageopacity="0.0"
     inkscape:pagecheckerboard="0"
     inkscape:deskcolor="#d1d1d1"
     showgrid="false"
     inkscape:zoom="5.9170634"
     inkscape:cx="100.47214"
     inkscape:cy="32.53303"
     inkscape:window-width="1350"
     inkscape:window-height="1040"
     inkscape:window-x="535"
     inkscape:window-y="22"
     inkscape:window-maximized="0"
     inkscape:current-layer="layer1" />
  <g
     id="g8"
     inkscape:groupmode="layer"
     inkscape:label="ink_ext_XXXXXX"
     transform="matrix(1.3333333,0,0,-1.3333333,0,64.96)">
    <g
       id="g10"
       transform="scale(0.1)">
      <g
         id="g12">
        <g
           id="g14"
           clip-path="url(#clipPath18)">
          <path
             d="m 1301.7,71.8672 21.25,-6.668 c 0,0 58.75,61.9998 111.42,170.6678 -12,43.664 -41.92,85.332 -41.92,85.332 0,0 -37.42,-145.332 -90.75,-249.3318"
             style="fill:url(#linearGradient24);fill-opacity:1;fill-rule:nonzero;stroke:none"
             id="path26" />
        </g>
      </g>
      <g
         id="g28">
        <g
           id="g30"
           clip-path="url(#clipPath34)">
          <path
             d="m 1392.45,321.199 c 0,0 29.92,-41.668 41.92,-85.332 0,0 53,-14.668 96.66,-39 l 2.67,10.582 c 0,0 -44.25,60.5 -141.25,113.75"
             style="fill:url(#linearGradient40);fill-opacity:1;fill-rule:nonzero;stroke:none"
             id="path42" />
        </g>
      </g>
      <g
         id="g44">
        <g
           id="g46"
           clip-path="url(#clipPath50)">
          <path
             d="m 1191.45,466.199 -7.25,-4.25 c 36,-43.25 66.5,-88.25 66.5,-88.25 0,0 52.67,0.059 94,-17.5 -74.04,79.985 -153.25,110 -153.25,110"
             style="fill:url(#linearGradient56);fill-opacity:1;fill-rule:nonzero;stroke:none"
             id="path58" />
        </g>
      </g>
      <g
         id="g60">
        <g
           id="g62"
           clip-path="url(#clipPath66)">
          <path
             d="m 1250.7,373.699 c -71,-60 -134.33,-158 -134.33,-158 l 14.33,-16.5 c 82,77 214,157 214,157 -41.33,17.559 -94,17.5 -94,17.5"
             style="fill:url(#linearGradient72);fill-opacity:1;fill-rule:nonzero;stroke:none"
             id="path74" />
        </g>
      </g>
      <g
         id="g76">
        <g
           id="g78"
           clip-path="url(#clipPath82)">
          <g
             id="g84"
             clip-path="url(#clipPath88)">
            <path
               d="m 1389,364 v 1 h -1 v 3 h -1 v 2 h -1 v 3 h -1 v 2 h -1 v 3 h -1 v 2 h -1 v 2 h -1 v 3 h -1 v 2 h -1 v 2 h -1 v 2 h -1 v 2 h -1 v 2 h -1 v 1 h -1 v 2 h -1 v 2 h -1 v 2 h -1 v 2 h -1 v 2 h -1 v 1 h -1 v 2 h -1 v 2 h -1 v 1 h -1 v 2 h -1 v 2 h -1 v 1 h -1 v 2 h -1 v 2 h -1 v 1 h -1 v 2 h -1 v 1 h -1 v 2 h -1 v 2 h -1 v 1 h -1 v 2 h -1 v 1 h -1 v 2 h -1 v 1 h -1 v 2 h -1 v 1 h -1 v 2 h -1 v 1 h -1 v 2 h -1 v 1 h -1 v 2 h -1 v 1 h -1 v 2 h -1 v 1 h -1 v 1 h -1 v 2 h -1 v 1 h -1 v 2 h -1 v 1 h -1 v 1 h -1 v 2 h -1 v 1 h -1 v 2 h -1 v 1 h -1 v 1 h -1 v 2 h -1 v 1 h -1 v 1 h -1 v 2 h -1 v 1 h -1 v 2 h -1 v 1 h -1 v 1 h -1 v 2 h -1 v 1 h -1 v 1 h -1 v 1 h -1 v 2 h -1 v 1 h -1 v 1 h -1 v 1 h 14 v -1 h 1 v -1 h 2 v -1 h 1 v -1 h 1 v -1 h 1 v -1 h 2 v -1 h 1 v -1 h 1 v -1 h 2 v -1 h 1 v -1 h 1 v -1 h 2 v -1 h 1 v -1 h 1 v -1 h 1 v -1 h 2 v -1 h 1 v -1 h 1 v -1 h 1 v -1 h 1 v -1 h 1 v -1 h 1 v -1 h 2 v -1 h 1 v -1 h 1 v -1 h 1 v -1 h 1 v -1 h 1 v -1 h 2 v -1 h 1 v -1 h 1 v -1 h 1 v -1 h 1 v -1 h 1 v -1 h 1 v -1 h 1 v -1 h 1 v -1 h 1 v -1 h 1 v -1 h 1 v -1 h 1 v -1 h 1 v -1 h 1 v -1 h 1 v -1 h 1 v -1 h 1 v -1 h 1 v -1 h 1 v -2 h 1 v -1 h 1 v -1 h 1 v -1 h 1 v -1 h 1 v -1 h 1 v -1 h 1 v -1 h 1 v -1 h 1 v -1 h 1 v -2 h 1 v -1 h 1 v -1 h 1 v -1 h 1 v -1 h 1 v -2 h 1 v -1 h 1 v -1 h 1 v -1 h 1 v -2 h 1 v -1 h 1 v -1 h 1 v -2 h 1 v -1 h 1 v -1 h 1 v -2 h 1 v -1 h 1 v -1 h 1 v -2 h 1 v -1 h 1 v -2 h 1 v -2 h -1 v -2 h -1 v -1 h -1 v -2 h -1 v -1 h -1 v -2 h -1 v -1 h -1 v -2 h -1 v -1 h -1 v -2 h -1 v -1 h -1 v -2 h -1 v -1 h -1 v -1 h -1 v -2 h -1 v -1 h -1 v -1 h -1 v -2 h -1 v -1 h -1 v -1 h -1 v -2 h -1 v -1 h -1 v -1 h -1 v -1 h -1 v -2"
               style="fill:url(#linearGradient94);fill-opacity:1;fill-rule:nonzero;stroke:none"
               id="path96" />
          </g>
        </g>
      </g>
      <g
         id="g98">
        <g
           id="g100"
           clip-path="url(#clipPath104)">
          <path
             d="m 1518.7,330.531 c 0,0 -17.25,34.336 -105.29,68.668 0,0 -8.29,-14.441 -24.38,-34.219 0,0 88.67,-7.781 129.67,-34.449"
             style="fill:url(#linearGradient110);fill-opacity:1;fill-rule:nonzero;stroke:none"
             id="path112" />
        </g>
      </g>
      <path
         d="m 1213.1,86 c -2.7,-13.6016 -8.9,-40 -11.5,-52.5 h -10.1 c 2.3,11.1016 8.9,40.1016 11.8,54.3984 1.6,8.1016 3.3,19.4996 -0.8,25.3006 -1.8,2.5 -4.6,4 -8.8,4.5 -11.16,1.723 -21.25,-3.422 -26.66,-7.644 -1.84,-1.438 -2.6,-3.742 -2.5,-6.075 0.15,-3.66 -0.27,-7.73 -1.24,-12.0816 C 1160.7,79.6016 1152.1,46.5 1149,33.5 h -10.3 c 2.5,10.5 12.1,47.5 14.9,60.5 1.7,8.199 1.2,14.301 -1.5,18.199 -2.2,3.199 -6,5.102 -11.6,5.903 -10.3,1.5 -19.4,-5.704 -23.6,-9.801 -1.2,-1.199 -2,-2.699 -2.3,-4.301 l -15.5,-70.5 h -10.2 l 16.7,76.199 c 0.1,0.801 0.5,1.5 1,2.102 0.6,0.801 15.5,18.898 35.3,16.199 8.3,-1.199 14.5,-4.5 18.4,-10 0.1,-0.102 0.1,-0.199 0.2,-0.301 7.6,6.102 20.8,11.903 34.7,9.903 6.9,-1 12.1,-3.903 15.4,-8.704 6.3,-8.796 4.6,-22.1988 2.5,-32.898"
         style="fill:#262a61;fill-opacity:1;fill-rule:nonzero;stroke:none"
         id="path114" />
      <path
         d="m 962.621,30.7344 c -3.73,0 -7.527,0.625 -11.211,2.1992 -21.629,9.207 -13.672,42.7227 -5.801,67.1364 5.743,17.832 16.243,24.219 24.036,26.426 11.152,3.195 24.578,-0.312 34.955,-9.148 l -6.479,-7.618 c -7.851,6.7 -17.746,9.442 -25.742,7.149 -7.813,-2.219 -13.781,-9.094 -17.258,-19.8751 -10.437,-32.4219 -10.379,-50.3711 0.207,-54.8711 12.84,-5.5 31.832,7.5742 31.996,7.6914 l 3.969,-9.0117 C 990.59,40.3047 977.172,30.7344 962.621,30.7344"
         style="fill:#262a61;fill-opacity:1;fill-rule:nonzero;stroke:none"
         id="path116" />
      <path
         d="M 904.898,127.699 883.801,33.5 h -10.199 l 21.097,94.199 h 10.199"
         style="fill:#262a61;fill-opacity:1;fill-rule:nonzero;stroke:none"
         id="path118" />
      <path
         d="m 881.148,119.684 -6.75,-7.582 c -3.097,4.097 -7.5,6.5 -12.5,6.796 -7,0.5 -15,-3.097 -22.898,-10.5 L 822.301,33.5 H 812 l 17.602,78.5 c 0.199,1 0.699,1.898 1.398,2.5 13.102,12.801 24.398,14.801 31.602,14.398 7.796,-0.597 13.648,-2.914 18.546,-9.214"
         style="fill:#262a61;fill-opacity:1;fill-rule:nonzero;stroke:none"
         id="path120" />
      <path
         d="m 785.102,61.6016 c -1.704,-7.5 -2.801,-14.1016 -0.204,-17.5 2.204,-2.9024 7.403,-4.5 15.602,-4.9024 l -0.602,-8.3008 C 788.398,31.5 781.102,32.6016 777,38 771.301,45.3984 773.5,55.6016 775.301,63.8008 778,76.3008 790.102,131.398 794,149.5 h 10.301 c -1,-4.602 -2.903,-13.199 -5.102,-23.301 h 18.762 l -1.961,-10 H 797 C 792.301,94.3984 786.801,69.5 785.102,61.6016"
         style="fill:#262a61;fill-opacity:1;fill-rule:nonzero;stroke:none"
         id="path122" />
      <path
         d="M 756,83.1992 C 753.398,71.6016 747.602,45.6992 744.898,33.5 h -20.5 c 1.801,8.5 9,40.6992 12,54.1992 2.704,11.8008 1.465,17.9488 -4.296,19.9998 -9.075,3.231 -14.403,-1 -18.204,-3.597 -3.398,-2.403 -5.597,-6.102 -6.699,-10.0004 -0.597,-2.3008 -1.301,-4.7032 -1.5,-5.7032 -3.5,-15.5 -9.097,-42.5976 -11.597,-54.8984 h -20.403 c 1.903,9.3008 9.199,45.1016 13.199,62.8984 1.204,4.9026 -2.699,7.8006 -5.097,9.1016 -6.199,3.301 -16.301,3.301 -24.699,-4.102 L 641.301,33.5 h -20.5 l 17.5,75.301 c 0.398,1.597 1.097,3.199 2.301,4.398 15.898,16.903 37.398,17 50.597,9.903 3,-1.602 5.602,-3.5 7.699,-5.801 7.403,5.898 20.602,13.301 37.102,10 7.5,-1.403 13.398,-5.301 17.199,-11 5.102,-7.903 6,-18.6994 2.801,-33.1018"
         style="fill:#262a61;fill-opacity:1;fill-rule:nonzero;stroke:none"
         id="path124" />
      <path
         d="m 581.809,69.5859 c -0.633,-5.9843 -3.801,-11.5312 -9.024,-14.5234 -23.43,-13.418 -27.195,2.4063 -18.887,31.0391 0.403,1.5976 1.5,5.8984 2,7.3984 2.731,10.398 16.426,13.824 26.543,11.199 2.801,-0.722 4.485,-3.574 3.899,-6.4099 -1.973,-9.5547 -3.512,-19.0782 -4.531,-28.7032 z m 0.89,57.2151 c -19.5,3.398 -42.199,-7 -47.301,-27.6994 -5.5,-21 -18.097,-55.7344 9.301,-65.7344 12.602,-3.8008 27,-0.5664 35.602,6.832 0,-2.1992 0,-4.3984 0.097,-6.6992 h 20.051 c 0.5,22.6992 3.949,48.5 9.449,70.699 2.204,13.801 -17.097,20.903 -27.199,22.602"
         style="fill:#262a61;fill-opacity:1;fill-rule:nonzero;stroke:none"
         id="path126" />
      <path
         d="m 481.797,108.938 c 9.098,-0.301 12.152,-8.739 8.703,-20.2388 h -29.699 c 4.398,14.3318 11.894,20.4378 20.996,20.2388 z m 3.152,17.136 c -16.406,1.813 -27.226,-4.492 -35.281,-13.347 C 437.824,99.6992 434.082,72.3906 432.547,59.0586 431.016,45.7461 440.5,36.8008 453.199,33.3008 469.102,28.8984 491,35.3984 503.801,44.1016 l -8.199,14.7968 c -34.801,-19.0976 -44.903,-5.3671 -39,9.9024 h 51.347 c 8.645,29.5976 10.535,53.5742 -23,57.2732"
         style="fill:#262a61;fill-opacity:1;fill-rule:nonzero;stroke:none"
         id="path128" />
      <path
         d="m 116.27,108.938 c 9.101,-0.301 12.156,-8.739 8.707,-20.2388 H 95.2734 c 4.4024,14.3318 11.8986,20.4378 20.9966,20.2388 z m 3.156,17.136 C 103.02,127.887 92.1992,121.582 84.1445,112.727 72.3008,99.6992 68.5586,72.3906 67.0234,59.0586 65.4883,45.7461 74.9766,36.8008 87.6758,33.3008 103.574,28.8984 125.477,35.3984 138.273,44.1016 l -8.199,14.7968 C 95.2734,39.8008 85.1758,53.5313 91.0742,68.8008 h 51.3518 c 8.644,29.5976 10.535,53.5742 -23,57.2732"
         style="fill:#262a61;fill-opacity:1;fill-rule:nonzero;stroke:none"
         id="path130" />
      <path
         d="m 434.301,120.102 -9.903,-17.301 c -3.398,2.597 -8.296,4.301 -13.5,4.699 -7.199,0.5 -14,-1.898 -19.699,-6.5 l -13.5,-67.5 h -20.398 l 14.898,74.602 c 0.403,2 1.403,3.796 2.801,5.199 10.199,10 23.398,15 37.199,14.097 8.102,-0.5 15.801,-3.097 22.102,-7.296"
         style="fill:#262a61;fill-opacity:1;fill-rule:nonzero;stroke:none"
         id="path132" />
      <path
         d="m 286.699,66.1992 c 2.602,-10.5 -0.898,-20.8984 -9.301,-27.8008 -6.597,-5.3984 -15.296,-8 -25.597,-8 -11.903,0 -24,3.8516 -39.102,11.0508 l 6.602,17.75 c 24.301,-11.5 39.597,-10 45.5,-5.3008 3,2.5 3,5.5 2.5,7.6016 -0.903,3.6992 -7.301,5.8008 -16.199,8.3984 C 241.199,72.8008 229.898,76 224.602,86 c -3.204,6 -3.403,13.3008 -0.704,21.602 3,9.398 10,16.398 19.801,19.597 14.102,4.5 33.602,1 50.199,-8.898 L 286,99.6016 c -12,8.0004 -26.898,11.5974 -36.102,8.5974 -4.898,-1.597 -6.628,-4.515 -7,-6.699 -1.457,-8.6055 8.204,-10.8008 13.704,-12.3984 11.199,-3.2032 26.5,-7.6016 30.097,-22.9024"
         style="fill:#262a61;fill-opacity:1;fill-rule:nonzero;stroke:none"
         id="path134" />
      <path
         d="m 186.102,68 c -1.801,-8 -1.903,-13 -0.403,-14.8008 1.403,-1.5976 7.403,-2.5 14.199,-0.8984 L 193.809,33.543 c -11.102,0.1992 -20.207,0.7578 -25.11,6.6562 -8.597,10.3008 -3.699,25.1016 -2.097,32.1992 3.699,16.3008 18,78.1016 18,78.1016 h 19.597 c 0,0 -2.301,-10.699 -5.398,-24.5 h 18.097 l -4.597,-20 H 194.5 C 191,90.3008 187.602,74.8008 186.102,68"
         style="fill:#262a61;fill-opacity:1;fill-rule:nonzero;stroke:none"
         id="path136" />
      <path
         d="m 327.465,68.1758 c -1.707,-7.9844 -1.746,-12.9766 -0.227,-14.7735 1.418,-1.5937 7.43,-2.4921 14.211,-0.8945 L 337.199,33.5 c -11.101,0.1992 -21.84,1.043 -26.808,6.9336 -8.723,10.2773 -3.996,25.0469 -2.477,32.1289 C 311.422,88.8281 325,150.5 325,150.5 h 19.602 c 0,0 -2.176,-10.676 -5.114,-24.449 h 18.098 l -4.363,-19.957 h -17.801 c -3.317,-15.6682 -6.535,-31.1331 -7.957,-37.9182"
         style="fill:#262a61;fill-opacity:1;fill-rule:nonzero;stroke:none"
         id="path138" />
      <path
         d="M 56.8984,126 C 54.3984,111.602 44.6992,56.3008 39.3008,37.3984 32.5,13.3008 23.1992,4.10156 0,0 v 16.6016 c 9.30078,2.5 14.8984,8.1992 19.6992,26 C 24.3008,59.1992 33.3008,107.898 36.6016,126 h 20.2968"
         style="fill:#262a61;fill-opacity:1;fill-rule:nonzero;stroke:none"
         id="path140" />
      <path
         d="m 1050.45,118.578 c -3.65,0 -7.25,-0.969 -10.49,-2.863 -4.82,-2.813 -8.26,-7.332 -9.67,-12.735 l -9.51,-36.2183 c -2.92,-11.1523 3.77,-22.5976 14.91,-25.5273 11.07,-2.8711 22.59,3.7578 25.52,14.9101 l 9.51,36.2227 c 2.92,11.1408 -3.77,22.5858 -14.92,25.5158 -1.76,0.461 -3.56,0.695 -5.35,0.695 z m -9.47,-87.6483 c -2.55,0 -5.15,0.3242 -7.73,1.0078 -16.28,4.2656 -26.05,20.9844 -21.77,37.2656 l 9.51,36.2189 c 2.07,7.883 7.08,14.492 14.12,18.605 7.04,4.121 15.28,5.243 23.14,3.153 16.28,-4.266 26.04,-20.985 21.76,-37.2542 l -9.51,-36.2227 c -3.59,-13.6914 -15.98,-22.7734 -29.52,-22.7734"
         style="fill:#262a61;fill-opacity:1;fill-rule:nonzero;stroke:none"
         id="path142" />
      <path
         d="m 922.211,35.6055 c -2.215,-2.9063 -5.797,-3.9024 -7.996,-2.2227 -2.199,1.6758 -2.188,5.3906 0.027,8.3008 2.219,2.9062 5.797,3.9023 8,2.2266 2.199,-1.6797 2.188,-5.3946 -0.031,-8.3047"
         style="fill:#262a61;fill-opacity:1;fill-rule:nonzero;stroke:none"
         id="path144" />
      <path
         d="m 908.613,149.508 c -2.578,-3.379 -6.738,-4.539 -9.297,-2.586 -2.558,1.949 -2.543,6.269 0.032,9.648 2.578,3.383 6.742,4.539 9.3,2.59 2.555,-1.949 2.543,-6.269 -0.035,-9.652"
         style="fill:#262a61;fill-opacity:1;fill-rule:nonzero;stroke:none"
         id="path146" />
      <path
         d="m 64.0703,156.121 c 2.8203,-4.887 -0.1328,-11.871 -6.5937,-15.601 -6.4649,-3.735 -13.9922,-2.797 -16.8125,2.089 -2.8203,4.887 0.1289,11.875 6.5937,15.606 6.4649,3.73 13.9883,2.797 16.8125,-2.094"
         style="fill:#262a61;fill-opacity:1;fill-rule:nonzero;stroke:none"
         id="path148" />
    </g>
  </g>
  <g
     inkscape:groupmode="layer"
     id="layer1"
     inkscape:label="ink_ext_XXXXXX 1" />
      </g>
</svg>
