<?xml version="1.0" encoding="UTF-8" standalone="no"?>
<!-- Created with Inkscape (http://www.inkscape.org/) -->

<svg
   version="1.1"
   id="svg2"
   width="204.49333"
   height="64.959999"
   viewBox="0 0 204.49333 64.959999"
   sodipodi:docname="JETSTREAM TRI.COM LOGO.eps"
   xmlns:inkscape="http://www.inkscape.org/namespaces/inkscape"
   xmlns:sodipodi="http://sodipodi.sourceforge.net/DTD/sodipodi-0.dtd"
   xmlns="http://www.w3.org/2000/svg"
   xmlns:svg="http://www.w3.org/2000/svg">
  <defs
     id="defs6">
    <clipPath
       clipPathUnits="userSpaceOnUse"
       id="clipPath18">
      <path
         d="m 1301.7,71.8672 21.25,-6.668 c 0,0 58.75,61.9998 111.42,170.6678 -12,43.664 -41.92,85.332 -41.92,85.332 0,0 -37.42,-145.332 -90.75,-249.3318 z"
         id="path16" />
    </clipPath>
    <linearGradient
       x1="0"
       y1="0"
       x2="1"
       y2="0"
       gradientUnits="userSpaceOnUse"
       gradientTransform="matrix(-136,-189,-189,136,1417.4,273.453)"
       spreadMethod="pad"
       id="linearGradient24">
      <stop
         style="stop-opacity:1;stop-color:#232c3c"
         offset="0"
         id="stop20" />
      <stop
         style="stop-opacity:1;stop-color:#c1c3c8"
         offset="1"
         id="stop22" />
    </linearGradient>
    <clipPath
       clipPathUnits="userSpaceOnUse"
       id="clipPath34">
      <path
         d="m 1392.45,321.199 c 0,0 29.92,-41.668 41.92,-85.332 0,0 53,-14.668 96.66,-39 l 2.67,10.582 c 0,0 -44.25,60.5 -141.25,113.75 z"
         id="path32" />
    </clipPath>
    <linearGradient
       x1="0"
       y1="0"
       x2="1"
       y2="0"
       gradientUnits="userSpaceOnUse"
       gradientTransform="matrix(-139.499,110,110,139.499,1525.48,195.038)"
       spreadMethod="pad"
       id="linearGradient40">
      <stop
         style="stop-opacity:1;stop-color:#232c3c"
         offset="0"
         id="stop36" />
      <stop
         style="stop-opacity:1;stop-color:#c1c3c8"
         offset="1"
         id="stop38" />
    </linearGradient>
    <clipPath
       clipPathUnits="userSpaceOnUse"
       id="clipPath50">
      <path
         d="m 1191.45,466.199 -7.25,-4.25 c 36,-43.25 66.5,-88.25 66.5,-88.25 0,0 52.67,0.059 94,-17.5 -74.04,79.985 -153.25,110 -153.25,110 z"
         id="path48" />
    </clipPath>
    <linearGradient
       x1="0"
       y1="0"
       x2="1"
       y2="0"
       gradientUnits="userSpaceOnUse"
       gradientTransform="matrix(152.5,-113,-113,-152.5,1183.22,454.933)"
       spreadMethod="pad"
       id="linearGradient56">
      <stop
         style="stop-opacity:1;stop-color:#232c3c"
         offset="0"
         id="stop52" />
      <stop
         style="stop-opacity:1;stop-color:#e9e9ea"
         offset="1"
         id="stop54" />
    </linearGradient>
    <clipPath
       clipPathUnits="userSpaceOnUse"
       id="clipPath66">
      <path
         d="m 1250.7,373.699 c -71,-60 -134.33,-158 -134.33,-158 l 14.33,-16.5 c 82,77 214,157 214,157 -41.33,17.559 -94,17.5 -94,17.5 z"
         id="path64" />
    </clipPath>
    <linearGradient
       x1="0"
       y1="0"
       x2="1"
       y2="0"
       gradientUnits="userSpaceOnUse"
       gradientTransform="matrix(-178,-161.333,-161.333,178,1301.63,368.677)"
       spreadMethod="pad"
       id="linearGradient72">
      <stop
         style="stop-opacity:1;stop-color:#232c3c"
         offset="0"
         id="stop68" />
      <stop
         style="stop-opacity:1;stop-color:#e9e9ea"
         offset="1"
         id="stop70" />
    </linearGradient>
    <clipPath
       clipPathUnits="userSpaceOnUse"
       id="clipPath82">
      <path
         d="M 0,0 H 1534 V 487 H 0 Z"
         id="path80" />
    </clipPath>
    <clipPath
       clipPathUnits="userSpaceOnUse"
       id="clipPath88">
      <path
         d="m 1413.41,399.199 c 0,0 -30.96,48.75 -88.04,88 h -10.67 c 0,0 60,-75.773 74.33,-122.219 16.09,19.778 24.38,34.219 24.38,34.219 z"
         id="path86" />
    </clipPath>
    <linearGradient
       x1="0"
       y1="0"
       x2="1"
       y2="0"
       gradientUnits="userSpaceOnUse"
       gradientTransform="matrix(82.0002,-106.333,-106.333,-82.0002,1320.26,487.553)"
       spreadMethod="pad"
       id="linearGradient94">
      <stop
         style="stop-opacity:1;stop-color:#ef323c"
         offset="0"
         id="stop90" />
      <stop
         style="stop-opacity:1;stop-color:#cc2231"
         offset="1"
         id="stop92" />
    </linearGradient>
    <clipPath
       clipPathUnits="userSpaceOnUse"
       id="clipPath104">
      <path
         d="m 1518.7,330.531 c 0,0 -17.25,34.336 -105.29,68.668 0,0 -8.29,-14.441 -24.38,-34.219 0,0 88.67,-7.781 129.67,-34.449 z"
         id="path102" />
    </clipPath>
    <linearGradient
       x1="0"
       y1="0"
       x2="1"
       y2="0"
       gradientUnits="userSpaceOnUse"
       gradientTransform="matrix(114.667,-36.6667,-36.6667,-114.667,1401.73,381.926)"
       spreadMethod="pad"
       id="linearGradient110">
      <stop
         style="stop-opacity:1;stop-color:#ef323c"
         offset="0"
         id="stop106" />
      <stop
         style="stop-opacity:1;stop-color:#cc2231"
         offset="1"
         id="stop108" />
    </linearGradient>
  </defs>
  <sodipodi:namedview
     id="namedview4"
     pagecolor="#ffffff"
     bordercolor="#000000"
     borderopacity="0.25"
     inkscape:showpageshadow="2"
     inkscape:pageopacity="0.0"
     inkscape:pagecheckerboard="0"
     inkscape:deskcolor="#d1d1d1" />
  <g
     id="g8"
     inkscape:groupmode="layer"
     inkscape:label="ink_ext_XXXXXX"
     transform="matrix(1.3333333,0,0,-1.3333333,0,64.96)">
    <g
       id="g10"
       transform="scale(0.1)">
      <g
         id="g12">
        <g
           id="g14"
           clip-path="url(#clipPath18)">
          <path
             d="m 1301.7,71.8672 21.25,-6.668 c 0,0 58.75,61.9998 111.42,170.6678 -12,43.664 -41.92,85.332 -41.92,85.332 0,0 -37.42,-145.332 -90.75,-249.3318"
             style="fill:url(#linearGradient24);fill-opacity:1;fill-rule:nonzero;stroke:none"
             id="path26" />
        </g>
      </g>
      <g
         id="g28">
        <g
           id="g30"
           clip-path="url(#clipPath34)">
          <path
             d="m 1392.45,321.199 c 0,0 29.92,-41.668 41.92,-85.332 0,0 53,-14.668 96.66,-39 l 2.67,10.582 c 0,0 -44.25,60.5 -141.25,113.75"
             style="fill:url(#linearGradient40);fill-opacity:1;fill-rule:nonzero;stroke:none"
             id="path42" />
        </g>
      </g>
      <g
         id="g44">
        <g
           id="g46"
           clip-path="url(#clipPath50)">
          <path
             d="m 1191.45,466.199 -7.25,-4.25 c 36,-43.25 66.5,-88.25 66.5,-88.25 0,0 52.67,0.059 94,-17.5 -74.04,79.985 -153.25,110 -153.25,110"
             style="fill:url(#linearGradient56);fill-opacity:1;fill-rule:nonzero;stroke:none"
             id="path58" />
        </g>
      </g>
      <g
         id="g60">
        <g
           id="g62"
           clip-path="url(#clipPath66)">
          <path
             d="m 1250.7,373.699 c -71,-60 -134.33,-158 -134.33,-158 l 14.33,-16.5 c 82,77 214,157 214,157 -41.33,17.559 -94,17.5 -94,17.5"
             style="fill:url(#linearGradient72);fill-opacity:1;fill-rule:nonzero;stroke:none"
             id="path74" />
        </g>
      </g>
      <g
         id="g76">
        <g
           id="g78"
           clip-path="url(#clipPath82)">
          <g
             id="g84"
             clip-path="url(#clipPath88)">
            <path
               d="m 1389,364 v 1 h -1 v 3 h -1 v 2 h -1 v 3 h -1 v 2 h -1 v 3 h -1 v 2 h -1 v 2 h -1 v 3 h -1 v 2 h -1 v 2 h -1 v 2 h -1 v 2 h -1 v 2 h -1 v 1 h -1 v 2 h -1 v 2 h -1 v 2 h -1 v 2 h -1 v 2 h -1 v 1 h -1 v 2 h -1 v 2 h -1 v 1 h -1 v 2 h -1 v 2 h -1 v 1 h -1 v 2 h -1 v 2 h -1 v 1 h -1 v 2 h -1 v 1 h -1 v 2 h -1 v 2 h -1 v 1 h -1 v 2 h -1 v 1 h -1 v 2 h -1 v 1 h -1 v 2 h -1 v 1 h -1 v 2 h -1 v 1 h -1 v 2 h -1 v 1 h -1 v 2 h -1 v 1 h -1 v 2 h -1 v 1 h -1 v 1 h -1 v 2 h -1 v 1 h -1 v 2 h -1 v 1 h -1 v 1 h -1 v 2 h -1 v 1 h -1 v 2 h -1 v 1 h -1 v 1 h -1 v 2 h -1 v 1 h -1 v 1 h -1 v 2 h -1 v 1 h -1 v 2 h -1 v 1 h -1 v 1 h -1 v 2 h -1 v 1 h -1 v 1 h -1 v 1 h -1 v 2 h -1 v 1 h -1 v 1 h -1 v 1 h 14 v -1 h 1 v -1 h 2 v -1 h 1 v -1 h 1 v -1 h 1 v -1 h 2 v -1 h 1 v -1 h 1 v -1 h 2 v -1 h 1 v -1 h 1 v -1 h 2 v -1 h 1 v -1 h 1 v -1 h 1 v -1 h 2 v -1 h 1 v -1 h 1 v -1 h 1 v -1 h 1 v -1 h 1 v -1 h 1 v -1 h 2 v -1 h 1 v -1 h 1 v -1 h 1 v -1 h 1 v -1 h 1 v -1 h 2 v -1 h 1 v -1 h 1 v -1 h 1 v -1 h 1 v -1 h 1 v -1 h 1 v -1 h 1 v -1 h 1 v -1 h 1 v -1 h 1 v -1 h 1 v -1 h 1 v -1 h 1 v -1 h 1 v -1 h 1 v -1 h 1 v -1 h 1 v -1 h 1 v -1 h 1 v -2 h 1 v -1 h 1 v -1 h 1 v -1 h 1 v -1 h 1 v -1 h 1 v -1 h 1 v -1 h 1 v -1 h 1 v -1 h 1 v -2 h 1 v -1 h 1 v -1 h 1 v -1 h 1 v -1 h 1 v -2 h 1 v -1 h 1 v -1 h 1 v -1 h 1 v -2 h 1 v -1 h 1 v -1 h 1 v -2 h 1 v -1 h 1 v -1 h 1 v -2 h 1 v -1 h 1 v -1 h 1 v -2 h 1 v -1 h 1 v -2 h 1 v -2 h -1 v -2 h -1 v -1 h -1 v -2 h -1 v -1 h -1 v -2 h -1 v -1 h -1 v -2 h -1 v -1 h -1 v -2 h -1 v -1 h -1 v -2 h -1 v -1 h -1 v -1 h -1 v -2 h -1 v -1 h -1 v -1 h -1 v -2 h -1 v -1 h -1 v -1 h -1 v -2 h -1 v -1 h -1 v -1 h -1 v -1 h -1 v -2"
               style="fill:url(#linearGradient94);fill-opacity:1;fill-rule:nonzero;stroke:none"
               id="path96" />
          </g>
        </g>
      </g>
      <g
         id="g98">
        <g
           id="g100"
           clip-path="url(#clipPath104)">
          <path
             d="m 1518.7,330.531 c 0,0 -17.25,34.336 -105.29,68.668 0,0 -8.29,-14.441 -24.38,-34.219 0,0 88.67,-7.781 129.67,-34.449"
             style="fill:url(#linearGradient110);fill-opacity:1;fill-rule:nonzero;stroke:none"
             id="path112" />
        </g>
      </g>
      <path
         d="m 1213.1,86 c -2.7,-13.6016 -8.9,-40 -11.5,-52.5 h -10.1 c 2.3,11.1016 8.9,40.1016 11.8,54.3984 1.6,8.1016 3.3,19.4996 -0.8,25.3006 -1.8,2.5 -4.6,4 -8.8,4.5 -11.16,1.723 -21.25,-3.422 -26.66,-7.644 -1.84,-1.438 -2.6,-3.742 -2.5,-6.075 0.15,-3.66 -0.27,-7.73 -1.24,-12.0816 C 1160.7,79.6016 1152.1,46.5 1149,33.5 h -10.3 c 2.5,10.5 12.1,47.5 14.9,60.5 1.7,8.199 1.2,14.301 -1.5,18.199 -2.2,3.199 -6,5.102 -11.6,5.903 -10.3,1.5 -19.4,-5.704 -23.6,-9.801 -1.2,-1.199 -2,-2.699 -2.3,-4.301 l -15.5,-70.5 h -10.2 l 16.7,76.199 c 0.1,0.801 0.5,1.5 1,2.102 0.6,0.801 15.5,18.898 35.3,16.199 8.3,-1.199 14.5,-4.5 18.4,-10 0.1,-0.102 0.1,-0.199 0.2,-0.301 7.6,6.102 20.8,11.903 34.7,9.903 6.9,-1 12.1,-3.903 15.4,-8.704 6.3,-8.796 4.6,-22.1988 2.5,-32.898"
         style="fill:#262a61;fill-opacity:1;fill-rule:nonzero;stroke:none"
         id="path114" />
      <path
         d="m 962.621,30.7344 c -3.73,0 -7.527,0.625 -11.211,2.1992 -21.629,9.207 -13.672,42.7227 -5.801,67.1364 5.743,17.832 16.243,24.219 24.036,26.426 11.152,3.195 24.578,-0.312 34.955,-9.148 l -6.479,-7.618 c -7.851,6.7 -17.746,9.442 -25.742,7.149 -7.813,-2.219 -13.781,-9.094 -17.258,-19.8751 -10.437,-32.4219 -10.379,-50.3711 0.207,-54.8711 12.84,-5.5 31.832,7.5742 31.996,7.6914 l 3.969,-9.0117 C 990.59,40.3047 977.172,30.7344 962.621,30.7344"
         style="fill:#262a61;fill-opacity:1;fill-rule:nonzero;stroke:none"
         id="path116" />
      <path
         d="M 904.898,127.699 883.801,33.5 h -10.199 l 21.097,94.199 h 10.199"
         style="fill:#262a61;fill-opacity:1;fill-rule:nonzero;stroke:none"
         id="path118" />
      <path
         d="m 881.148,119.684 -6.75,-7.582 c -3.097,4.097 -7.5,6.5 -12.5,6.796 -7,0.5 -15,-3.097 -22.898,-10.5 L 822.301,33.5 H 812 l 17.602,78.5 c 0.199,1 0.699,1.898 1.398,2.5 13.102,12.801 24.398,14.801 31.602,14.398 7.796,-0.597 13.648,-2.914 18.546,-9.214"
         style="fill:#262a61;fill-opacity:1;fill-rule:nonzero;stroke:none"
         id="path120" />
      <path
         d="m 785.102,61.6016 c -1.704,-7.5 -2.801,-14.1016 -0.204,-17.5 2.204,-2.9024 7.403,-4.5 15.602,-4.9024 l -0.602,-8.3008 C 788.398,31.5 781.102,32.6016 777,38 771.301,45.3984 773.5,55.6016 775.301,63.8008 778,76.3008 790.102,131.398 794,149.5 h 10.301 c -1,-4.602 -2.903,-13.199 -5.102,-23.301 h 18.762 l -1.961,-10 H 797 C 792.301,94.3984 786.801,69.5 785.102,61.6016"
         style="fill:#262a61;fill-opacity:1;fill-rule:nonzero;stroke:none"
         id="path122" />
      <path
         d="M 756,83.1992 C 753.398,71.6016 747.602,45.6992 744.898,33.5 h -20.5 c 1.801,8.5 9,40.6992 12,54.1992 2.704,11.8008 1.465,17.9488 -4.296,19.9998 -9.075,3.231 -14.403,-1 -18.204,-3.597 -3.398,-2.403 -5.597,-6.102 -6.699,-10.0004 -0.597,-2.3008 -1.301,-4.7032 -1.5,-5.7032 -3.5,-15.5 -9.097,-42.5976 -11.597,-54.8984 h -20.403 c 1.903,9.3008 9.199,45.1016 13.199,62.8984 1.204,4.9026 -2.699,7.8006 -5.097,9.1016 -6.199,3.301 -16.301,3.301 -24.699,-4.102 L 641.301,33.5 h -20.5 l 17.5,75.301 c 0.398,1.597 1.097,3.199 2.301,4.398 15.898,16.903 37.398,17 50.597,9.903 3,-1.602 5.602,-3.5 7.699,-5.801 7.403,5.898 20.602,13.301 37.102,10 7.5,-1.403 13.398,-5.301 17.199,-11 5.102,-7.903 6,-18.6994 2.801,-33.1018"
         style="fill:#262a61;fill-opacity:1;fill-rule:nonzero;stroke:none"
         id="path124" />
      <path
         d="m 581.809,69.5859 c -0.633,-5.9843 -3.801,-11.5312 -9.024,-14.5234 -23.43,-13.418 -27.195,2.4063 -18.887,31.0391 0.403,1.5976 1.5,5.8984 2,7.3984 2.731,10.398 16.426,13.824 26.543,11.199 2.801,-0.722 4.485,-3.574 3.899,-6.4099 -1.973,-9.5547 -3.512,-19.0782 -4.531,-28.7032 z m 0.89,57.2151 c -19.5,3.398 -42.199,-7 -47.301,-27.6994 -5.5,-21 -18.097,-55.7344 9.301,-65.7344 12.602,-3.8008 27,-0.5664 35.602,6.832 0,-2.1992 0,-4.3984 0.097,-6.6992 h 20.051 c 0.5,22.6992 3.949,48.5 9.449,70.699 2.204,13.801 -17.097,20.903 -27.199,22.602"
         style="fill:#262a61;fill-opacity:1;fill-rule:nonzero;stroke:none"
         id="path126" />
      <path
         d="m 481.797,108.938 c 9.098,-0.301 12.152,-8.739 8.703,-20.2388 h -29.699 c 4.398,14.3318 11.894,20.4378 20.996,20.2388 z m 3.152,17.136 c -16.406,1.813 -27.226,-4.492 -35.281,-13.347 C 437.824,99.6992 434.082,72.3906 432.547,59.0586 431.016,45.7461 440.5,36.8008 453.199,33.3008 469.102,28.8984 491,35.3984 503.801,44.1016 l -8.199,14.7968 c -34.801,-19.0976 -44.903,-5.3671 -39,9.9024 h 51.347 c 8.645,29.5976 10.535,53.5742 -23,57.2732"
         style="fill:#262a61;fill-opacity:1;fill-rule:nonzero;stroke:none"
         id="path128" />
      <path
         d="m 116.27,108.938 c 9.101,-0.301 12.156,-8.739 8.707,-20.2388 H 95.2734 c 4.4024,14.3318 11.8986,20.4378 20.9966,20.2388 z m 3.156,17.136 C 103.02,127.887 92.1992,121.582 84.1445,112.727 72.3008,99.6992 68.5586,72.3906 67.0234,59.0586 65.4883,45.7461 74.9766,36.8008 87.6758,33.3008 103.574,28.8984 125.477,35.3984 138.273,44.1016 l -8.199,14.7968 C 95.2734,39.8008 85.1758,53.5313 91.0742,68.8008 h 51.3518 c 8.644,29.5976 10.535,53.5742 -23,57.2732"
         style="fill:#262a61;fill-opacity:1;fill-rule:nonzero;stroke:none"
         id="path130" />
      <path
         d="m 434.301,120.102 -9.903,-17.301 c -3.398,2.597 -8.296,4.301 -13.5,4.699 -7.199,0.5 -14,-1.898 -19.699,-6.5 l -13.5,-67.5 h -20.398 l 14.898,74.602 c 0.403,2 1.403,3.796 2.801,5.199 10.199,10 23.398,15 37.199,14.097 8.102,-0.5 15.801,-3.097 22.102,-7.296"
         style="fill:#262a61;fill-opacity:1;fill-rule:nonzero;stroke:none"
         id="path132" />
      <path
         d="m 286.699,66.1992 c 2.602,-10.5 -0.898,-20.8984 -9.301,-27.8008 -6.597,-5.3984 -15.296,-8 -25.597,-8 -11.903,0 -24,3.8516 -39.102,11.0508 l 6.602,17.75 c 24.301,-11.5 39.597,-10 45.5,-5.3008 3,2.5 3,5.5 2.5,7.6016 -0.903,3.6992 -7.301,5.8008 -16.199,8.3984 C 241.199,72.8008 229.898,76 224.602,86 c -3.204,6 -3.403,13.3008 -0.704,21.602 3,9.398 10,16.398 19.801,19.597 14.102,4.5 33.602,1 50.199,-8.898 L 286,99.6016 c -12,8.0004 -26.898,11.5974 -36.102,8.5974 -4.898,-1.597 -6.628,-4.515 -7,-6.699 -1.457,-8.6055 8.204,-10.8008 13.704,-12.3984 11.199,-3.2032 26.5,-7.6016 30.097,-22.9024"
         style="fill:#262a61;fill-opacity:1;fill-rule:nonzero;stroke:none"
         id="path134" />
      <path
         d="m 186.102,68 c -1.801,-8 -1.903,-13 -0.403,-14.8008 1.403,-1.5976 7.403,-2.5 14.199,-0.8984 L 193.809,33.543 c -11.102,0.1992 -20.207,0.7578 -25.11,6.6562 -8.597,10.3008 -3.699,25.1016 -2.097,32.1992 3.699,16.3008 18,78.1016 18,78.1016 h 19.597 c 0,0 -2.301,-10.699 -5.398,-24.5 h 18.097 l -4.597,-20 H 194.5 C 191,90.3008 187.602,74.8008 186.102,68"
         style="fill:#262a61;fill-opacity:1;fill-rule:nonzero;stroke:none"
         id="path136" />
      <path
         d="m 327.465,68.1758 c -1.707,-7.9844 -1.746,-12.9766 -0.227,-14.7735 1.418,-1.5937 7.43,-2.4921 14.211,-0.8945 L 337.199,33.5 c -11.101,0.1992 -21.84,1.043 -26.808,6.9336 -8.723,10.2773 -3.996,25.0469 -2.477,32.1289 C 311.422,88.8281 325,150.5 325,150.5 h 19.602 c 0,0 -2.176,-10.676 -5.114,-24.449 h 18.098 l -4.363,-19.957 h -17.801 c -3.317,-15.6682 -6.535,-31.1331 -7.957,-37.9182"
         style="fill:#262a61;fill-opacity:1;fill-rule:nonzero;stroke:none"
         id="path138" />
      <path
         d="M 56.8984,126 C 54.3984,111.602 44.6992,56.3008 39.3008,37.3984 32.5,13.3008 23.1992,4.10156 0,0 v 16.6016 c 9.30078,2.5 14.8984,8.1992 19.6992,26 C 24.3008,59.1992 33.3008,107.898 36.6016,126 h 20.2968"
         style="fill:#262a61;fill-opacity:1;fill-rule:nonzero;stroke:none"
         id="path140" />
      <path
         d="m 1050.45,118.578 c -3.65,0 -7.25,-0.969 -10.49,-2.863 -4.82,-2.813 -8.26,-7.332 -9.67,-12.735 l -9.51,-36.2183 c -2.92,-11.1523 3.77,-22.5976 14.91,-25.5273 11.07,-2.8711 22.59,3.7578 25.52,14.9101 l 9.51,36.2227 c 2.92,11.1408 -3.77,22.5858 -14.92,25.5158 -1.76,0.461 -3.56,0.695 -5.35,0.695 z m -9.47,-87.6483 c -2.55,0 -5.15,0.3242 -7.73,1.0078 -16.28,4.2656 -26.05,20.9844 -21.77,37.2656 l 9.51,36.2189 c 2.07,7.883 7.08,14.492 14.12,18.605 7.04,4.121 15.28,5.243 23.14,3.153 16.28,-4.266 26.04,-20.985 21.76,-37.2542 l -9.51,-36.2227 c -3.59,-13.6914 -15.98,-22.7734 -29.52,-22.7734"
         style="fill:#262a61;fill-opacity:1;fill-rule:nonzero;stroke:none"
         id="path142" />
      <path
         d="m 922.211,35.6055 c -2.215,-2.9063 -5.797,-3.9024 -7.996,-2.2227 -2.199,1.6758 -2.188,5.3906 0.027,8.3008 2.219,2.9062 5.797,3.9023 8,2.2266 2.199,-1.6797 2.188,-5.3946 -0.031,-8.3047"
         style="fill:#262a61;fill-opacity:1;fill-rule:nonzero;stroke:none"
         id="path144" />
      <path
         d="m 908.613,149.508 c -2.578,-3.379 -6.738,-4.539 -9.297,-2.586 -2.558,1.949 -2.543,6.269 0.032,9.648 2.578,3.383 6.742,4.539 9.3,2.59 2.555,-1.949 2.543,-6.269 -0.035,-9.652"
         style="fill:#262a61;fill-opacity:1;fill-rule:nonzero;stroke:none"
         id="path146" />
      <path
         d="m 64.0703,156.121 c 2.8203,-4.887 -0.1328,-11.871 -6.5937,-15.601 -6.4649,-3.735 -13.9922,-2.797 -16.8125,2.089 -2.8203,4.887 0.1289,11.875 6.5937,15.606 6.4649,3.73 13.9883,2.797 16.8125,-2.094"
         style="fill:#262a61;fill-opacity:1;fill-rule:nonzero;stroke:none"
         id="path148" />
    </g>
  </g>
</svg>
